<?xml version="1.0" standalone="no"?>
<!DOCTYPE svg PUBLIC "-//W3C//DTD SVG 20010904//EN"
 "http://www.w3.org/TR/2001/REC-SVG-20010904/DTD/svg10.dtd">
<svg version="1.0" xmlns="http://www.w3.org/2000/svg"
 width="1024.000000pt" height="1024.000000pt" viewBox="0 0 1024.000000 1024.000000"
 preserveAspectRatio="xMidYMid meet">
<metadata>
Created by potrace 1.14, written by Peter Selinger 2001-2017
</metadata>
<g transform="translate(0.000000,1024.000000) scale(0.100000,-0.100000)"
fill="#000000" stroke="none">
<path d="M1246 9164 c-34 -11 -65 -31 -102 -68 -84 -84 -86 -96 -82 -518 l3
-353 27 -50 c33 -63 70 -98 133 -127 49 -23 55 -23 415 -23 349 0 367 1 410
21 67 31 106 68 137 132 l28 57 0 365 c0 360 0 366 -23 415 -29 63 -64 100
-127 133 l-50 27 -360 2 c-299 2 -368 -1 -409 -13z"/>
<path d="M2989 9165 c-59 -19 -128 -79 -159 -141 l-25 -49 0 -375 0 -375 27
-50 c33 -63 70 -98 133 -127 49 -23 55 -23 415 -23 349 0 367 1 410 21 67 31
106 68 137 132 l28 57 0 370 0 370 -27 50 c-31 59 -67 94 -128 126 -45 24 -48
24 -405 26 -290 2 -369 -1 -406 -12z"/>
<path d="M4741 9169 c-71 -21 -131 -72 -169 -144 l-27 -50 0 -375 0 -375 27
-51 c31 -59 73 -98 138 -128 43 -20 61 -21 410 -21 350 0 367 1 411 21 66 31
113 77 140 136 24 53 24 55 24 423 l0 370 -27 50 c-31 60 -67 95 -128 127 -45
23 -49 23 -405 25 -215 1 -374 -2 -394 -8z"/>
<path d="M6490 9171 c-84 -26 -141 -74 -181 -151 -24 -44 -24 -50 -27 -393 -3
-293 -1 -356 12 -402 23 -76 70 -134 141 -170 l59 -30 365 0 c361 0 367 0 416
23 63 29 100 64 133 127 l27 50 0 375 c0 374 0 375 -23 420 -32 60 -73 102
-130 131 -47 24 -48 24 -407 26 -198 1 -371 -2 -385 -6z"/>
<path d="M8230 9171 c-86 -27 -146 -78 -182 -156 -23 -49 -23 -55 -23 -415 0
-349 1 -367 21 -410 31 -67 68 -106 132 -137 l57 -28 365 0 c360 0 366 0 415
23 63 29 100 64 133 127 l27 50 3 353 c4 421 2 434 -82 517 -83 83 -95 85
-500 84 -188 0 -352 -4 -366 -8z"/>
<path d="M1261 7429 c-73 -22 -133 -74 -173 -149 -23 -45 -23 -46 -23 -420 0
-375 0 -375 24 -420 32 -61 67 -97 126 -128 l50 -27 370 0 c354 0 372 1 415
21 67 31 106 68 137 132 l28 57 0 365 c0 360 0 366 -23 415 -29 63 -64 100
-127 133 l-50 27 -360 2 c-216 1 -373 -2 -394 -8z"/>
<path d="M4750 7431 c-84 -26 -141 -74 -181 -151 -24 -45 -24 -45 -24 -420 l0
-375 27 -50 c33 -63 70 -98 133 -127 49 -23 55 -23 415 -23 360 0 366 0 415
23 63 29 100 64 133 127 l27 50 0 375 0 375 -27 50 c-31 59 -67 94 -128 126
-45 24 -48 24 -405 26 -198 1 -371 -2 -385 -6z"/>
<path d="M8235 7431 c-85 -22 -150 -75 -187 -156 -23 -49 -23 -55 -23 -415 0
-349 1 -367 21 -410 31 -67 68 -106 132 -137 l57 -28 365 0 c360 0 366 0 415
23 63 29 100 64 133 127 l27 50 0 375 c0 374 0 375 -23 420 -32 60 -73 102
-130 131 -47 24 -48 24 -402 26 -195 1 -368 -2 -385 -6z"/>
<path d="M1275 5691 c-82 -21 -146 -72 -187 -151 -23 -45 -23 -46 -23 -420 0
-374 0 -375 23 -420 32 -61 67 -97 127 -128 l50 -27 370 0 c368 0 370 0 423
24 59 27 105 74 136 140 20 44 21 61 21 411 0 360 0 366 -23 415 -29 63 -64
100 -127 133 l-50 27 -355 2 c-195 1 -368 -2 -385 -6z"/>
<path d="M3015 5691 c-82 -21 -145 -72 -186 -151 -24 -45 -24 -45 -24 -420 0
-375 0 -375 24 -420 32 -61 67 -97 126 -128 l50 -27 375 0 375 0 50 27 c63 33
98 70 127 133 23 49 23 55 23 415 0 360 0 366 -23 415 -29 63 -64 100 -127
133 l-50 27 -355 2 c-195 1 -368 -2 -385 -6z"/>
<path d="M4755 5691 c-82 -21 -145 -72 -186 -151 -24 -45 -24 -45 -24 -420 0
-375 0 -375 24 -420 32 -61 67 -97 126 -128 l50 -27 375 0 375 0 50 27 c59 31
94 67 126 128 24 45 24 45 24 420 l0 375 -27 50 c-31 59 -67 94 -128 126 -45
24 -48 24 -400 26 -195 1 -368 -2 -385 -6z"/>
<path d="M6495 5691 c-86 -22 -150 -75 -187 -156 -23 -49 -23 -55 -23 -415 0
-360 0 -366 23 -415 29 -63 64 -100 127 -133 l50 -27 375 0 375 0 50 27 c59
31 94 67 126 128 24 45 24 45 24 420 l0 375 -27 50 c-31 59 -67 94 -128 126
-45 24 -48 24 -400 26 -195 1 -368 -2 -385 -6z"/>
<path d="M8235 5691 c-86 -22 -150 -75 -187 -156 -23 -49 -23 -55 -23 -415 0
-350 1 -367 21 -411 31 -66 77 -113 136 -140 53 -24 55 -24 423 -24 l370 0 50
27 c59 31 94 67 126 128 24 45 24 45 24 420 l0 375 -27 50 c-31 59 -67 94
-128 126 -45 24 -48 24 -400 26 -195 1 -368 -2 -385 -6z"/>
<path d="M1275 3951 c-81 -20 -145 -72 -186 -151 -24 -45 -24 -45 -24 -420 0
-374 0 -375 23 -420 32 -61 67 -97 127 -128 l50 -27 375 0 375 0 50 27 c63 33
98 70 127 133 23 49 23 55 23 416 l0 365 -30 59 c-19 37 -46 72 -73 92 -78 59
-108 63 -476 62 -182 -1 -344 -4 -361 -8z"/>
<path d="M4745 3946 c-89 -28 -134 -66 -176 -146 -24 -45 -24 -45 -24 -420 0
-375 0 -375 24 -420 32 -61 67 -97 126 -128 l50 -27 375 0 375 0 50 27 c59 31
94 67 126 128 24 45 24 45 24 420 l0 375 -27 50 c-33 63 -70 98 -133 127 -49
22 -58 23 -400 25 -263 2 -360 -1 -390 -11z"/>
<path d="M8212 3941 c-73 -25 -122 -68 -157 -136 l-30 -59 0 -365 c0 -361 0
-367 23 -416 29 -63 64 -100 127 -133 l50 -27 375 0 375 0 50 27 c60 31 95 67
127 128 23 45 23 46 23 420 l0 375 -27 50 c-31 59 -67 94 -128 126 -45 24 -49
24 -400 26 -324 3 -360 1 -408 -16z"/>
<path d="M1277 2209 c-87 -21 -145 -67 -188 -149 -24 -44 -24 -49 -27 -398 -4
-422 -2 -434 82 -518 84 -84 96 -86 518 -82 l353 3 50 27 c63 33 98 70 127
133 23 49 23 55 23 415 l0 365 -28 57 c-31 64 -70 101 -137 132 -43 20 -63 21
-390 23 -190 1 -362 -3 -383 -8z"/>
<path d="M3017 2209 c-87 -21 -145 -67 -188 -149 -24 -45 -24 -45 -24 -420 0
-374 0 -375 23 -420 32 -60 73 -102 130 -131 l47 -24 375 0 375 0 50 27 c59
31 94 67 126 128 24 45 24 46 24 415 l0 370 -28 57 c-31 64 -70 101 -137 132
-43 20 -63 21 -390 23 -190 1 -362 -3 -383 -8z"/>
<path d="M4757 2209 c-87 -21 -145 -67 -188 -149 -24 -45 -24 -45 -24 -420 0
-375 0 -375 24 -420 32 -61 67 -97 126 -128 l50 -27 375 0 375 0 50 27 c59 31
94 67 126 128 24 45 24 45 24 420 l0 375 -27 50 c-33 63 -70 98 -133 127 -49
22 -58 23 -395 25 -190 1 -362 -3 -383 -8z"/>
<path d="M6488 2206 c-102 -28 -176 -106 -198 -210 -8 -34 -11 -164 -8 -391 3
-335 3 -341 27 -385 32 -61 67 -97 126 -128 l50 -27 375 0 c374 0 375 0 420
23 61 32 97 67 128 127 l27 50 0 375 0 375 -27 50 c-33 63 -70 98 -133 127
-49 22 -58 23 -395 25 -257 2 -357 -1 -392 -11z"/>
<path d="M8228 2206 c-103 -28 -176 -107 -198 -212 -7 -34 -10 -169 -8 -386 3
-323 4 -334 26 -383 29 -63 64 -100 127 -133 l50 -27 375 0 375 0 47 24 c57
29 98 71 130 131 23 45 23 46 23 420 l0 375 -27 50 c-33 63 -70 98 -133 127
-49 22 -58 23 -395 25 -257 2 -357 -1 -392 -11z"/>
</g>
</svg>
